<?xml version="1.0" encoding="utf-8"?>
<!-- Generator: Adobe Illustrator 16.0.4, SVG Export Plug-In . SVG Version: 6.00 Build 0)  -->
<!DOCTYPE svg PUBLIC "-//W3C//DTD SVG 1.1//EN" "http://www.w3.org/Graphics/SVG/1.1/DTD/svg11.dtd">
<svg version="1.1" xmlns="http://www.w3.org/2000/svg" xmlns:xlink="http://www.w3.org/1999/xlink" x="0px" y="0px"
	 width="379.268px" height="170.607px" viewBox="0 0 379.268 170.607" enable-background="new 0 0 379.268 170.607"
	 xml:space="preserve">
<g id="fond_vert">
	<g>
		<g>
			<rect fill="#AAC414" width="379.268" height="170.607"/>
		</g>
	</g>
</g>
<g id="image">
	<g>
		<polygon fill="#E5E5E7" points="29.04,20.651 34.362,84.016 29.04,153.312 130.726,137.678 247.902,158.047 351.747,140.104 
			342.651,80.074 351.747,13.981 246.475,43.086 130.726,13.981 		"/>
	</g>
	<g>
		<path fill="#AAC414" d="M292.414,88.533c-0.288-1.001-0.464-1.991-0.509-2.975l-48.171,8.122l2.74-50.595l-2.9-0.729
			l-2.845,51.338L135.712,74.571l-1.901-59.814l-3.085-0.775l1.983,60.49l-98.347,9.544l-0.249,3.243l98.583-9.768l-1.971,60.187
			l2.933,0.51l2.03-60.571l105.02,19.123l3.701,60.7l3.493,0.607l-4.182-61.315L292.414,88.533z"/>
		<path fill="#AAC414" d="M330.185,79.104c0.306,0.954,0.522,1.944,0.679,2.954l11.788-1.984l0.433-3.145L330.185,79.104z"/>
	</g>
	<polygon opacity="0.2" fill="#090601" points="130.726,137.678 29.04,153.312 34.362,84.016 29.36,24.467 28.579,24.19 0,52.768 
		0.014,170.607 324.874,170.875 351.747,140.104 247.902,158.047 	"/>
	<g>
		<circle fill="#FFFFFF" cx="88.294" cy="71.279" r="4.55"/>
		<path fill="#B2B3B9" d="M88.294,77.83c-3.611,0-6.55-2.938-6.55-6.551s2.938-6.551,6.55-6.551c3.612,0,6.551,2.938,6.551,6.551
			S91.906,77.83,88.294,77.83z M88.294,68.729c-1.406,0-2.55,1.145-2.55,2.551s1.144,2.551,2.55,2.551s2.551-1.145,2.551-2.551
			S89.7,68.729,88.294,68.729z"/>
	</g>
	<g>
		<circle fill="#FFFFFF" cx="140.544" cy="55.771" r="4.551"/>
		<path fill="#B2B3B9" d="M140.545,62.322c-3.612,0-6.552-2.938-6.552-6.551c0-3.611,2.939-6.55,6.552-6.55
			c3.611,0,6.551,2.938,6.551,6.55C147.096,59.384,144.156,62.322,140.545,62.322z M140.545,53.222c-1.407,0-2.552,1.144-2.552,2.55
			s1.145,2.551,2.552,2.551c1.406,0,2.551-1.145,2.551-2.551S141.951,53.222,140.545,53.222z"/>
	</g>
	<g>
		<circle fill="#FFFFFF" cx="57.625" cy="98.107" r="4.55"/>
		<path fill="#B2B3B9" d="M57.626,104.656c-3.612,0-6.551-2.938-6.551-6.549c0-3.612,2.938-6.551,6.551-6.551
			c3.611,0,6.55,2.938,6.55,6.551C64.176,101.719,61.237,104.656,57.626,104.656z M57.626,95.557c-1.407,0-2.551,1.145-2.551,2.551
			c0,1.405,1.144,2.549,2.551,2.549c1.406,0,2.55-1.144,2.55-2.549C60.176,96.701,59.032,95.557,57.626,95.557z"/>
	</g>
	<g>
		<circle fill="#FFFFFF" cx="215.65" cy="84.016" r="4.551"/>
		<path fill="#B2B3B9" d="M215.65,90.566c-3.612,0-6.551-2.938-6.551-6.551s2.938-6.551,6.551-6.551s6.551,2.938,6.551,6.551
			S219.263,90.566,215.65,90.566z M215.65,81.465c-1.406,0-2.551,1.145-2.551,2.551s1.145,2.551,2.551,2.551
			s2.551-1.145,2.551-2.551S217.057,81.465,215.65,81.465z"/>
	</g>
	<g>
		<circle fill="#FFFFFF" cx="270.009" cy="122.342" r="4.551"/>
		<path fill="#B2B3B9" d="M270.009,128.891c-3.612,0-6.551-2.938-6.551-6.549c0-3.612,2.938-6.551,6.551-6.551
			s6.551,2.938,6.551,6.551C276.56,125.953,273.621,128.891,270.009,128.891z M270.009,119.791c-1.407,0-2.551,1.145-2.551,2.551
			c0,1.405,1.144,2.549,2.551,2.549s2.551-1.144,2.551-2.549C272.56,120.936,271.416,119.791,270.009,119.791z"/>
	</g>
	<g>
		<circle fill="#FFFFFF" cx="311.501" cy="122.342" r="4.551"/>
		<path fill="#B2B3B9" d="M311.501,128.891c-3.612,0-6.551-2.938-6.551-6.549c0-3.612,2.938-6.551,6.551-6.551
			s6.551,2.938,6.551,6.551C318.052,125.953,315.113,128.891,311.501,128.891z M311.501,119.791c-1.406,0-2.551,1.145-2.551,2.551
			c0,1.405,1.145,2.549,2.551,2.549s2.551-1.144,2.551-2.549C314.052,120.936,312.907,119.791,311.501,119.791z"/>
	</g>
	<g>
		<path fill="#8C8B8D" d="M51.916,101.307c-4.248,4.666-7.987,9.085-11.231,12.922c-5.349,6.325-9.967,11.788-12.474,12.93
			l1.658,3.641c3.323-1.514,7.519-6.476,13.87-13.987c3.206-3.791,6.906-8.165,11.112-12.781
			C53.612,103.448,52.584,102.494,51.916,101.307z"/>
		<path fill="#8C8B8D" d="M133.993,55.771c0-0.542,0.074-1.065,0.198-1.568c-15.353,1.421-28.938,6.29-40.857,12.897
			c0.864,1.04,1.405,2.353,1.491,3.787c11.585-6.489,24.773-11.278,39.642-12.685C134.165,57.45,133.993,56.631,133.993,55.771z"/>
		<path fill="#8C8B8D" d="M82.327,73.967c-8.162,5.675-15.397,12.017-21.753,18.299c1.221,0.618,2.222,1.604,2.856,2.816
			c6.322-6.235,13.524-12.519,21.641-18.107C83.866,76.29,82.901,75.236,82.327,73.967z"/>
		<path fill="#8C8B8D" d="M318.024,121.799c9.514-2.546,19.46-6.285,29.835-11.246l-1.725-3.609
			c-10.345,4.946-20.239,8.653-29.674,11.131C317.338,119.093,317.907,120.382,318.024,121.799z"/>
		<path fill="#8C8B8D" d="M304.95,122.342c0-0.647,0.098-1.272,0.273-1.863c-10.223,1.669-19.851,1.771-28.862,0.295
			c0.125,0.504,0.198,1.027,0.198,1.568c0,0.87-0.174,1.699-0.483,2.459c9.169,1.459,18.928,1.371,29.258-0.272
			C305.09,123.844,304.95,123.109,304.95,122.342z"/>
		<path fill="#8C8B8D" d="M212.586,78.229c-15.016-12.275-34.692-23.257-65.361-24.388c-0.142-0.005-0.281-0.006-0.423-0.011
			c0.19,0.613,0.294,1.266,0.294,1.94c0,0.721-0.121,1.412-0.338,2.061c0.107,0.004,0.213,0.004,0.32,0.008
			c29.512,1.089,48.102,11.284,62.723,23.242C210.413,79.868,211.387,78.867,212.586,78.229z"/>
		<path fill="#8C8B8D" d="M265.116,118.001c-7.782-2.591-15.04-6.497-21.753-11.735c-4.924-3.845-9.688-8.471-14.732-13.369
			c-2.203-2.141-4.479-4.349-6.857-6.574c-0.486,1.288-1.363,2.386-2.491,3.142c2.245,2.109,4.422,4.223,6.562,6.302
			c5.124,4.976,9.963,9.676,15.058,13.653c6.992,5.457,14.528,9.547,22.588,12.284C263.628,120.288,264.221,119.008,265.116,118.001
			z"/>
	</g>
	<path fill="#B2B3B9" d="M345.65,99.876c-8.661,1.361-16.339,2.042-23.23,2.166c-4.023,5.385-8.333,11.201-10.271,17.741
		c-0.086,0.293-0.355,0.496-0.664,0.5c-0.307,0.002-0.58-0.197-0.674-0.49c-2.279-7.285-7.563-13.826-11.972-19.895
		c-35.484-7.834-45.709-34.571-94.013-40.558c-64.558-8-154.943,67.001-174.366,75.468l-1.421,18.504l101.686-15.635l117.177,20.369
		l103.844-17.943L345.65,99.876z"/>
	<g>
		<g>
			<path fill="#89898E" d="M311.503,65.453c-10.82,0-19.619,8.803-19.619,19.617c0,10.158,14.682,21.15,18.928,34.723
				c0.094,0.293,0.367,0.492,0.674,0.49c0.309-0.004,0.578-0.207,0.664-0.5c4.119-13.906,18.969-24.543,18.971-34.713
				C331.118,74.256,322.317,65.453,311.503,65.453z"/>
		</g>
		<g>
			<path fill="#FFFFFF" d="M311.503,94.508c-5.482,0-9.941-4.46-9.941-9.939c0-5.48,4.459-9.941,9.941-9.941
				c5.477,0.001,9.936,4.461,9.936,9.941C321.438,90.048,316.979,94.508,311.503,94.508z"/>
		</g>
	</g>
</g>
</svg>
